<svg xmlns="http://www.w3.org/2000/svg" viewBox="0 0 32 32"><path fill="#E2761B" d="M29.5 2.5 17.9 10.8l2.2-5.2z"/><path fill="#E4761B" d="m2.5 2.5 11.5 8.4L11.9 5.6z"/><path fill="#E4761B" d="M24.8 21.7 20.5 27l8.8 2.4 2.5-8.6zM.2 20.8l2.5 8.6 8.8-2.4-4.3-5.3z"/><path fill="#D7C1B3" d="M11.2 14.1 9.4 17.2l8.9.4-.2-9.2z"/><path fill="#233447" d="M2.5 2.5l1.1 13.6 7.6-2.5zM28.4 2.5 19.7 13.6 27.3 16z"/><path fill="#CD6116" d="M11.9 5.6 14.1 14.1 9.4 17.2zm8.2 8.5 2.2-5.2 4.3 5.3z"/><path fill="#E4751F" d="M20.1 14.1l-2.7 7.6 3.1-1.5zm-8.2 6.1 3.1 1.5-2.7-7.6z"/><path fill="#F6851B" d="M11.9 21.7 14.1 27l.1-4.4zm8.2 1.5-.1 4.4 2.2-5.3z"/><path fill="#C0AD9E" d="M20.5 27 14.1 27l3.2 3.7z"/><path fill="#161616" d="M14.1 27l-2.2 5.3 3.2-3.7z"/><path fill="#763D16" d="M9.4 17.2l1.8 4.5 3.1-1.5zm11.5 3 1.8-4.5-2.7 7.6z"/></svg>
