<svg xmlns="http://www.w3.org/2000/svg" viewBox="0 0 24 24" role="img" aria-label="Monad">
  <defs>
    <linearGradient id="mon-g" x1="0%" y1="0%" x2="100%" y2="100%">
      <stop offset="0%" stop-color="#B794FF"/>
      <stop offset="50%" stop-color="#836EF9"/>
      <stop offset="100%" stop-color="#5B3FD9"/>
    </linearGradient>
    <filter id="mon-glow" x="-25%" y="-25%" width="150%" height="150%">
      <feDropShadow dx="0" dy="0" stdDeviation="1.4" flood-color="#836EF9" flood-opacity="0.7"/>
    </filter>
  </defs>
  <rect width="24" height="24" rx="6" fill="#0E091C"/>
  <g transform="translate(12 12) rotate(45) scale(0.82) translate(-12 -12)" filter="url(#mon-glow)">
    <path fill="url(#mon-g)" fill-rule="evenodd" clip-rule="evenodd" d="M12 2.25c.48 0 .92.19 1.24.51l6.99 6.99a1.75 1.75 0 0 1 .51 1.24v1.02a1.75 1.75 0 0 1-.51 1.24l-6.99 6.99A1.75 1.75 0 0 1 12 21.75c-.48 0-.92-.19-1.24-.51l-6.99-6.99a1.75 1.75 0 0 1-.51-1.24v-1.02c0-.48.19-.92.51-1.24l6.99-6.99c.32-.32.76-.51 1.24-.51Zm0 4.1a1.15 1.15 0 0 0-.82.34l-3.84 3.84a1.15 1.15 0 0 0 0 1.64l3.84 3.84c.22.22.5.34.82.34s.6-.12.82-.34l3.84-3.84a1.15 1.15 0 0 0 0-1.64l-3.84-3.84A1.15 1.15 0 0 0 12 6.35Z"/>
  </g>
</svg>
